<svg xmlns="http://www.w3.org/2000/svg" width="64" height="64" viewBox="0 0 64 64" role="img" aria-label="Jeena — Nameeta and Jeenendra">
  <rect width="64" height="64" rx="14" fill="#5A1F2B"/>

  <!-- Groom (left): gold turban dome behind, rose-gold face on top -->
  <circle cx="21" cy="27" r="14" fill="#C9A24B"/>
  <path d="M9 23 Q21 17 33 23" fill="none" stroke="#5A1F2B" stroke-width="1.5" opacity="0.45"/>
  <circle cx="21" cy="37" r="13" fill="#D98A6E"/>
  <circle cx="17.3" cy="34" r="1.45" fill="#3A1620"/>
  <circle cx="24.7" cy="34" r="1.45" fill="#3A1620"/>
  <path d="M17.5 39.5 Q21 42.2 24.5 39.5" fill="none" stroke="#3A1620" stroke-width="1.4" stroke-linecap="round"/>

  <!-- Bride (right): dark hair dome behind, ivory face on top, gold bindi -->
  <circle cx="42" cy="26" r="15" fill="#2A0E15"/>
  <circle cx="42" cy="37" r="13" fill="#FAF3EE"/>
  <circle cx="42" cy="27.6" r="2" fill="#C9A24B"/>
  <circle cx="38.3" cy="34" r="1.45" fill="#3A1620"/>
  <circle cx="45.7" cy="34" r="1.45" fill="#3A1620"/>
  <path d="M38.5 39.5 Q42 42.2 45.5 39.5" fill="none" stroke="#B85C6A" stroke-width="1.4" stroke-linecap="round"/>
  <circle cx="54.2" cy="38.5" r="1.3" fill="#C9A24B"/>

  <!-- Gold heart -->
  <path d="M32 61
           C 25.5 55.8 21.5 52.3 21.5 48.3
           C 21.5 45.1 24 42.8 27 42.8
           C 29.4 42.8 31.2 44.5 32 46.3
           C 32.8 44.5 34.6 42.8 37 42.8
           C 40 42.8 42.5 45.1 42.5 48.3
           C 42.5 52.3 38.5 55.8 32 61 Z" fill="#C9A24B"/>
</svg>
