<svg xmlns="http://www.w3.org/2000/svg" width="64" height="64" viewBox="0 0 64 64" role="img" aria-label="Jeena — Nameeta and Jeenendra">
  <rect width="64" height="64" rx="15" fill="#5A1F2B"/>
  <!-- Groom (left) -->
  <g>
    <path d="M14 27a11 11 0 0 1 22 0v3a11 11 0 0 1-22 0z" fill="#F4D9CE"/>
    <path d="M13.5 27a11.5 11.5 0 0 1 23 0c-3-2-6-3-11.5-3S16.5 25 13.5 27z" fill="#2A0E15"/>
    <path d="M20 24l5-3 5 3a12 12 0 0 0-10 0z" fill="#C9A24B"/>
    <circle cx="21" cy="30" r="1.4" fill="#3A1620"/>
    <circle cx="29" cy="30" r="1.4" fill="#3A1620"/>
    <path d="M22 34q3 2 6 0" stroke="#8A4A3A" stroke-width="1.4" fill="none" stroke-linecap="round"/>
  </g>
  <!-- Bride (right) -->
  <g>
    <path d="M30 29a11 11 0 0 1 22 0v3a11 11 0 0 1-22 0z" fill="#F7E0D6"/>
    <path d="M29.5 29a11.5 11.5 0 0 1 23 0c0 4-2 7-2 7l-2-6-7-3-7 3-2 6s-3-3-3-7z" fill="#2A0E15"/>
    <circle cx="41" cy="24.5" r="1.6" fill="#C9A24B"/>
    <circle cx="37" cy="32" r="1.4" fill="#3A1620"/>
    <circle cx="45" cy="32" r="1.4" fill="#3A1620"/>
    <path d="M39 36q2 1.6 4 0" stroke="#B85C6A" stroke-width="1.4" fill="none" stroke-linecap="round"/>
    <circle cx="33.5" cy="33" r="1.3" fill="#C9A24B"/>
    <circle cx="48.5" cy="33" r="1.3" fill="#C9A24B"/>
  </g>
  <!-- Little gold heart -->
  <path d="M32 49c-3-2.4-6-4.2-6-7a3 3 0 0 1 6-1 3 3 0 0 1 6 1c0 2.8-3 4.6-6 7z" fill="#C9A24B"/>
</svg>
